<svg width="1200" height="700" viewBox="0 0 1200 700" fill="none" xmlns="http://www.w3.org/2000/svg">
  <defs>
    <linearGradient id="bgTravel" x1="200" y1="60" x2="980" y2="640" gradientUnits="userSpaceOnUse">
      <stop stop-color="#DCFCE7"/>
      <stop offset="1" stop-color="#BBF7D0"/>
    </linearGradient>
  </defs>
  <rect width="1200" height="700" fill="url(#bgTravel)"/>
  <circle cx="970" cy="120" r="76" fill="#4ADE80"/>
  <path d="M120 520C220 430 310 470 390 520C470 570 580 580 700 520C820 460 930 450 1080 520V700H120V520Z" fill="#86EFAC"/>
  <path d="M120 570C220 510 320 520 420 570C520 620 630 620 740 570C850 520 970 510 1080 570V700H120V570Z" fill="#4ADE80" opacity="0.7"/>
  <rect x="320" y="250" width="560" height="220" rx="26" fill="#F0FDF4" stroke="#22C55E" stroke-width="4"/>
  <path d="M380 300h170l45 55h-260l45-55Z" fill="#86EFAC"/>
  <circle cx="690" cy="350" r="54" fill="#DCFCE7" stroke="#16A34A" stroke-width="6"/>
  <path d="M690 312v76M652 350h76" stroke="#16A34A" stroke-width="7" stroke-linecap="round"/>
</svg>
